<mxfile host="app.diagrams.net" agent="Mozilla/5.0 (Windows NT 10.0; Win64; x64; rv:143.0) Gecko/20100101 Firefox/143.0" version="28.2.5">
  <diagram name="Страница — 1" id="SXoC0z6oiC8eo1iiEOM2">
    <mxGraphModel dx="2053" dy="662" grid="1" gridSize="10" guides="1" tooltips="1" connect="1" arrows="1" fold="1" page="1" pageScale="1" pageWidth="827" pageHeight="1169" math="0" shadow="0">
      <root>
        <mxCell id="0" />
        <mxCell id="1" parent="0" />
        <mxCell id="taiaCCv4Tr7rA3Act_Ue-1" value="&lt;div style=&quot;box-sizing: border-box; width: 100%; background: rgb(228, 228, 228); padding: 2px;&quot;&gt;users&lt;/div&gt;&lt;table style=&quot;width:100%;font-size:1em;&quot; cellpadding=&quot;2&quot; cellspacing=&quot;0&quot;&gt;&lt;tbody&gt;&lt;tr&gt;&lt;td&gt;PK&lt;/td&gt;&lt;td&gt;id: bigserial&lt;/td&gt;&lt;/tr&gt;&lt;tr&gt;&lt;td&gt;&lt;br&gt;&lt;/td&gt;&lt;td&gt;first_name: varchar(64) not null&lt;/td&gt;&lt;/tr&gt;&lt;tr&gt;&lt;td&gt;&lt;br&gt;&lt;/td&gt;&lt;td&gt;last_name: varchar(64) not null&lt;/td&gt;&lt;/tr&gt;&lt;tr&gt;&lt;td&gt;&lt;br&gt;&lt;/td&gt;&lt;td&gt;email: varchar(128) not null unique&lt;/td&gt;&lt;/tr&gt;&lt;tr&gt;&lt;td&gt;&lt;/td&gt;&lt;td&gt;password: varchar(128) not null&lt;/td&gt;&lt;/tr&gt;&lt;/tbody&gt;&lt;/table&gt;" style="verticalAlign=top;align=left;overflow=fill;html=1;whiteSpace=wrap;" parent="1" vertex="1">
          <mxGeometry x="355" y="110" width="213" height="120" as="geometry" />
        </mxCell>
        <mxCell id="taiaCCv4Tr7rA3Act_Ue-2" value="&lt;div style=&quot;box-sizing: border-box; width: 100%; background: rgb(228, 228, 228); padding: 2px;&quot;&gt;roles&lt;/div&gt;&lt;table style=&quot;width:100%;font-size:1em;&quot; cellpadding=&quot;2&quot; cellspacing=&quot;0&quot;&gt;&lt;tbody&gt;&lt;tr&gt;&lt;td&gt;PK&lt;/td&gt;&lt;td&gt;id: bigserial&lt;/td&gt;&lt;/tr&gt;&lt;tr&gt;&lt;td&gt;&lt;br&gt;&lt;/td&gt;&lt;td&gt;name: varchar(64) not null unique&lt;/td&gt;&lt;/tr&gt;&lt;tr&gt;&lt;td&gt;&lt;br&gt;&lt;/td&gt;&lt;td&gt;&lt;br&gt;&lt;/td&gt;&lt;/tr&gt;&lt;/tbody&gt;&lt;/table&gt;" style="verticalAlign=top;align=left;overflow=fill;html=1;whiteSpace=wrap;" parent="1" vertex="1">
          <mxGeometry x="355" y="260" width="213" height="60" as="geometry" />
        </mxCell>
        <mxCell id="taiaCCv4Tr7rA3Act_Ue-3" value="&lt;div style=&quot;box-sizing: border-box; width: 100%; background: rgb(228, 228, 228); padding: 2px;&quot;&gt;users_roles&lt;/div&gt;&lt;table style=&quot;width:100%;font-size:1em;&quot; cellpadding=&quot;2&quot; cellspacing=&quot;0&quot;&gt;&lt;tbody&gt;&lt;tr&gt;&lt;td&gt;PK, FK&lt;/td&gt;&lt;td&gt;user_id: bigint&lt;/td&gt;&lt;/tr&gt;&lt;tr&gt;&lt;td&gt;PK, FK&lt;/td&gt;&lt;td&gt;role_id: bigint&lt;/td&gt;&lt;/tr&gt;&lt;tr&gt;&lt;td&gt;&lt;/td&gt;&lt;td&gt;&lt;br&gt;&lt;/td&gt;&lt;/tr&gt;&lt;/tbody&gt;&lt;/table&gt;" style="verticalAlign=top;align=left;overflow=fill;html=1;whiteSpace=wrap;" parent="1" vertex="1">
          <mxGeometry x="632" y="180" width="180" height="60" as="geometry" />
        </mxCell>
        <mxCell id="taiaCCv4Tr7rA3Act_Ue-4" value="" style="endArrow=ERoneToMany;html=1;rounded=0;entryX=0;entryY=0.5;entryDx=0;entryDy=0;exitX=1.005;exitY=0.336;exitDx=0;exitDy=0;exitPerimeter=0;startArrow=ERoneToMany;startFill=0;endFill=0;" parent="1" source="taiaCCv4Tr7rA3Act_Ue-1" target="taiaCCv4Tr7rA3Act_Ue-3" edge="1">
          <mxGeometry width="50" height="50" relative="1" as="geometry">
            <mxPoint x="572" y="200" as="sourcePoint" />
            <mxPoint x="682" y="350" as="targetPoint" />
            <Array as="points">
              <mxPoint x="602" y="150" />
              <mxPoint x="602" y="210" />
            </Array>
          </mxGeometry>
        </mxCell>
        <mxCell id="taiaCCv4Tr7rA3Act_Ue-5" value="" style="endArrow=ERoneToMany;html=1;rounded=0;startArrow=ERoneToMany;startFill=0;endFill=0;exitX=1;exitY=0.5;exitDx=0;exitDy=0;entryX=0;entryY=0.75;entryDx=0;entryDy=0;" parent="1" source="taiaCCv4Tr7rA3Act_Ue-2" target="taiaCCv4Tr7rA3Act_Ue-3" edge="1">
          <mxGeometry width="50" height="50" relative="1" as="geometry">
            <mxPoint x="580" y="255" as="sourcePoint" />
            <mxPoint x="630" y="225" as="targetPoint" />
            <Array as="points">
              <mxPoint x="602" y="290" />
              <mxPoint x="602" y="225" />
            </Array>
          </mxGeometry>
        </mxCell>
        <mxCell id="taiaCCv4Tr7rA3Act_Ue-7" value="&lt;div style=&quot;box-sizing: border-box; width: 100%; background: rgb(228, 228, 228); padding: 2px;&quot;&gt;cards&lt;/div&gt;&lt;table style=&quot;width:100%;font-size:1em;&quot; cellpadding=&quot;2&quot; cellspacing=&quot;0&quot;&gt;&lt;tbody&gt;&lt;tr&gt;&lt;td&gt;PK&lt;/td&gt;&lt;td&gt;id: bigserial&lt;/td&gt;&lt;/tr&gt;&lt;tr&gt;&lt;td&gt;FK&lt;/td&gt;&lt;td&gt;user_id: bigint not null&lt;/td&gt;&lt;/tr&gt;&lt;tr&gt;&lt;td&gt;&lt;/td&gt;&lt;td&gt;number: bytea not null&lt;/td&gt;&lt;/tr&gt;&lt;tr&gt;&lt;td&gt;&lt;br&gt;&lt;/td&gt;&lt;td&gt;last4: char(4) not null&lt;/td&gt;&lt;/tr&gt;&lt;tr&gt;&lt;td&gt;&lt;br&gt;&lt;/td&gt;&lt;td&gt;cardholder_name: varchar(128) not null&lt;/td&gt;&lt;/tr&gt;&lt;tr&gt;&lt;td&gt;&lt;br&gt;&lt;/td&gt;&lt;td&gt;expiration_month: smallint not null&lt;/td&gt;&lt;/tr&gt;&lt;tr&gt;&lt;td&gt;&lt;br&gt;&lt;/td&gt;&lt;td&gt;expiration_year: smallint not null&lt;/td&gt;&lt;/tr&gt;&lt;tr&gt;&lt;td&gt;&lt;br&gt;&lt;/td&gt;&lt;td&gt;status: enum {CREATED, ACTIVE, BLOCKED, EXPIRED} not null&lt;/td&gt;&lt;/tr&gt;&lt;tr&gt;&lt;td&gt;&lt;br&gt;&lt;/td&gt;&lt;td&gt;balance: numeric(18, 2) not null default 0.0&lt;/td&gt;&lt;/tr&gt;&lt;/tbody&gt;&lt;/table&gt;" style="verticalAlign=top;align=left;overflow=fill;html=1;whiteSpace=wrap;" parent="1" vertex="1">
          <mxGeometry x="15" y="20" width="280" height="220" as="geometry" />
        </mxCell>
        <mxCell id="taiaCCv4Tr7rA3Act_Ue-9" value="" style="endArrow=ERone;html=1;rounded=0;entryX=-0.002;entryY=0.186;entryDx=0;entryDy=0;startArrow=ERzeroToMany;startFill=0;endFill=0;entryPerimeter=0;exitX=1;exitY=0.181;exitDx=0;exitDy=0;exitPerimeter=0;" parent="1" source="taiaCCv4Tr7rA3Act_Ue-7" target="taiaCCv4Tr7rA3Act_Ue-1" edge="1">
          <mxGeometry width="50" height="50" relative="1" as="geometry">
            <mxPoint x="300" y="60" as="sourcePoint" />
            <mxPoint x="442" y="280" as="targetPoint" />
            <Array as="points">
              <mxPoint x="330" y="60" />
              <mxPoint x="330" y="133" />
            </Array>
          </mxGeometry>
        </mxCell>
        <mxCell id="LUeeC5YiwZJBVhihtZ-n-1" value="&lt;div style=&quot;box-sizing: border-box; width: 100%; background: rgb(228, 228, 228); padding: 2px;&quot;&gt;refresh_tokens&lt;/div&gt;&lt;table style=&quot;width:100%;font-size:1em;&quot; cellpadding=&quot;2&quot; cellspacing=&quot;0&quot;&gt;&lt;tbody&gt;&lt;tr&gt;&lt;td&gt;PK&lt;/td&gt;&lt;td&gt;id: bigserial&lt;/td&gt;&lt;/tr&gt;&lt;tr&gt;&lt;td&gt;FK&lt;/td&gt;&lt;td&gt;user_id: bigint not null&lt;/td&gt;&lt;/tr&gt;&lt;tr&gt;&lt;td&gt;&lt;/td&gt;&lt;td&gt;token: varchar(512) not null unique&lt;/td&gt;&lt;/tr&gt;&lt;tr&gt;&lt;td&gt;&lt;br&gt;&lt;/td&gt;&lt;td&gt;expires_at: timestamp not null&lt;/td&gt;&lt;/tr&gt;&lt;/tbody&gt;&lt;/table&gt;" style="verticalAlign=top;align=left;overflow=fill;html=1;whiteSpace=wrap;" parent="1" vertex="1">
          <mxGeometry x="115" y="290" width="180" height="130" as="geometry" />
        </mxCell>
        <mxCell id="LUeeC5YiwZJBVhihtZ-n-2" value="" style="endArrow=ERone;html=1;rounded=0;entryX=0.001;entryY=0.29;entryDx=0;entryDy=0;entryPerimeter=0;startArrow=ERzeroToOne;startFill=0;endFill=0;exitX=1;exitY=0.446;exitDx=0;exitDy=0;exitPerimeter=0;" parent="1" source="LUeeC5YiwZJBVhihtZ-n-1" target="taiaCCv4Tr7rA3Act_Ue-1" edge="1">
          <mxGeometry width="50" height="50" relative="1" as="geometry">
            <mxPoint x="300" y="293" as="sourcePoint" />
            <mxPoint x="440" y="230" as="targetPoint" />
            <Array as="points">
              <mxPoint x="331" y="348" />
              <mxPoint x="331" y="145" />
            </Array>
          </mxGeometry>
        </mxCell>
        <mxCell id="3ID1F8Q5ZKtAskaUcmvC-1" value="&lt;div style=&quot;box-sizing: border-box; width: 100%; background: rgb(228, 228, 228); padding: 2px;&quot;&gt;block_request_tickets&lt;/div&gt;&lt;table style=&quot;width:100%;font-size:1em;&quot; cellpadding=&quot;2&quot; cellspacing=&quot;0&quot;&gt;&lt;tbody&gt;&lt;tr&gt;&lt;td&gt;PK&lt;/td&gt;&lt;td&gt;id: bigserial&lt;/td&gt;&lt;/tr&gt;&lt;tr&gt;&lt;td&gt;FK&lt;/td&gt;&lt;td&gt;card_id: bigint not null&lt;/td&gt;&lt;/tr&gt;&lt;tr&gt;&lt;td&gt;&lt;/td&gt;&lt;td&gt;time_stamp: timestamp not null&lt;/td&gt;&lt;/tr&gt;&lt;tr&gt;&lt;td&gt;&lt;br&gt;&lt;/td&gt;&lt;td&gt;status: enum {PENDING, APPROVED, REJECTED} not null&lt;/td&gt;&lt;/tr&gt;&lt;/tbody&gt;&lt;/table&gt;" style="verticalAlign=top;align=left;overflow=fill;html=1;whiteSpace=wrap;" vertex="1" parent="1">
          <mxGeometry x="-90" y="270" width="180" height="140" as="geometry" />
        </mxCell>
        <mxCell id="3ID1F8Q5ZKtAskaUcmvC-2" value="" style="endArrow=ERone;html=1;rounded=0;entryX=0;entryY=0.125;entryDx=0;entryDy=0;entryPerimeter=0;exitX=-0.002;exitY=0.33;exitDx=0;exitDy=0;exitPerimeter=0;endFill=0;startArrow=ERzeroToMany;startFill=0;" edge="1" parent="1" source="3ID1F8Q5ZKtAskaUcmvC-1" target="taiaCCv4Tr7rA3Act_Ue-7">
          <mxGeometry width="50" height="50" relative="1" as="geometry">
            <mxPoint x="-110" y="170" as="sourcePoint" />
            <mxPoint x="-190" y="130" as="targetPoint" />
            <Array as="points">
              <mxPoint x="-130" y="316" />
              <mxPoint x="-130" y="47" />
            </Array>
          </mxGeometry>
        </mxCell>
      </root>
    </mxGraphModel>
  </diagram>
</mxfile>
